<svg width="32" height="32" viewBox="0 0 32 32" xmlns="http://www.w3.org/2000/svg"><defs><linearGradient id="sol" x1="4" y1="26" x2="28" y2="6" gradientUnits="userSpaceOnUse"><stop offset="0" stop-color="#9945FF"/><stop offset="1" stop-color="#14F195"/></linearGradient></defs><circle cx="16" cy="16" r="16" fill="#0B0B0F"/><g fill="url(#sol)"><path d="M9.925 19.687a.59.59 0 01.415-.17h14.366a.29.29 0 01.207.497l-2.838 2.815a.59.59 0 01-.415.171H7.294a.291.291 0 01-.207-.498l2.838-2.815z"/><path d="M9.925 9.17A.59.59 0 0110.34 9h14.366c.261 0 .392.314.207.498l-2.838 2.815a.59.59 0 01-.415.17H7.294a.291.291 0 01-.207-.497L9.925 9.17z"/><path d="M22.075 14.395a.59.59 0 00-.415-.17H7.294a.291.291 0 00-.207.498l2.838 2.815c.11.109.26.17.415.17h14.366a.291.291 0 00.207-.498l-2.838-2.815z"/></g></svg>
